# xmcd
#
# Track frame offsets: 
#        150
#        22449
#        38018
#        58163
#        78185
#        94706
#        109126
#        131098
#        152654
#        178782
#        194298
#        207376
#        231889
#        246594
#
# Disc length: 3507 seconds
#
# Revision: 0
# Processed by: cddbd v1.5.2PL0 Copyright (c) Steve Scherf et al.
# Submitted via: ExactAudioCopy v0.99pb3
#
DISCID=c70db10e
DTITLE=Dennis Gruenling - I Just Keep Lovin' Him
DYEAR=2008
DGENRE=Blues
TTITLE0=Up The Line
TTITLE1=Lovin' Man
TTITLE2=I Got To Go
TTITLE3=Hot Shot
TTITLE4=Too Young To Know
TTITLE5=Corbella
TTITLE6=If You Were Mine
TTITLE7=My Little Machine
TTITLE8=Teenage Beat
TTITLE9=As Long As I Have You
TTITLE10=Temperature
TTITLE11=One Of These Mornings
TTITLE12=That's It
TTITLE13=Your're Sweet
EXTD=
EXTT0=
EXTT1=
EXTT2=
EXTT3=
EXTT4=
EXTT5=
EXTT6=
EXTT7=
EXTT8=
EXTT9=
EXTT10=
EXTT11=
EXTT12=
EXTT13=
PLAYORDER=
